<?xml version="1.0" standalone="no"?>
<!DOCTYPE svg PUBLIC "-//W3C//DTD SVG 20010904//EN"
 "http://www.w3.org/TR/2001/REC-SVG-20010904/DTD/svg10.dtd">
<svg version="1.0" xmlns="http://www.w3.org/2000/svg"
 width="700.000000pt" height="700.000000pt" viewBox="0 0 700.000000 700.000000"
 preserveAspectRatio="xMidYMid meet">
<metadata>
Created by potrace 1.11, written by Peter Selinger 2001-2013
</metadata>
<g transform="translate(0.000000,700.000000) scale(0.100000,-0.100000)"
fill="#000000" stroke="none">
<path d="M3300 6414 c-620 -56 -1109 -244 -1595 -613 -129 -97 -409 -377 -506
-506 -335 -440 -520 -883 -595 -1425 -25 -174 -25 -566 0 -740 75 -542 260
-985 595 -1425 97 -129 377 -409 506 -506 440 -335 883 -520 1425 -595 174
-25 566 -25 740 0 542 75 985 260 1425 595 129 97 409 377 506 506 335 440
520 883 595 1425 25 174 25 566 0 740 -75 542 -260 985 -595 1425 -97 129
-377 409 -506 506 -439 334 -891 523 -1420 594 -114 15 -480 27 -575 19z m533
-609 c517 -81 953 -300 1313 -659 367 -368 586 -812 665 -1351 18 -118 18
-472 0 -590 -79 -539 -298 -983 -665 -1351 -368 -367 -812 -586 -1351 -665
-118 -18 -472 -18 -590 0 -539 79 -983 298 -1351 665 -367 368 -586 812 -665
1351 -18 118 -18 472 0 590 33 226 86 418 167 613 231 550 686 1005 1236 1236
238 100 418 144 738 180 73 9 409 -4 503 -19z"/>
<path d="M3350 4580 l0 -819 -49 -46 c-191 -179 -71 -503 188 -507 l59 -1 383
-383 c211 -211 388 -384 394 -384 6 0 63 53 128 118 l117 117 -389 389 -388
388 -1 58 c-1 80 -32 148 -93 205 l-49 46 0 819 0 820 -150 0 -150 0 0 -820z"/>
</g>
</svg>
